<svg width="24" height="24" viewBox="0 0 24 24" fill="none" xmlns="http://www.w3.org/2000/svg">
<path d="M4.47012 21.0002H19.5301C21.0701 21.0002 22.0301 19.3302 21.2601 18.0002L13.7301 4.99018C12.9601 3.66018 11.0401 3.66018 10.2701 4.99018L2.74012 18.0002C1.97012 19.3302 2.93012 21.0002 4.47012 21.0002ZM12.0001 14.0002C11.4501 14.0002 11.0001 13.5502 11.0001 13.0002V9.00018C11.0001 8.45018 11.4501 8.00018 12.0001 8.00018C12.5501 8.00018 13.0001 8.45018 13.0001 9.00018V13.0002C13.0001 13.5502 12.5501 14.0002 12.0001 14.0002ZM13.0001 17.0002C13.0001 17.5525 12.5524 18.0002 12.0001 18.0002C11.4478 18.0002 11.0001 17.5525 11.0001 17.0002C11.0001 16.4479 11.4478 16.0002 12.0001 16.0002C12.5524 16.0002 13.0001 16.4479 13.0001 17.0002Z" fill="#798395"/>
</svg>
