<svg width="24" height="24" viewBox="0 0 24 24" fill="none" xmlns="http://www.w3.org/2000/svg">
<g clip-path="url(#clip0_11:2608)">
<path fill-rule="evenodd" clip-rule="evenodd" d="M6.3427 4.92893C5.95218 4.53841 5.31901 4.53841 4.92849 4.92893C4.53797 5.31946 4.53797 5.95262 4.92849 6.34315L10.5853 12L4.92849 17.6569C4.53797 18.0474 4.53796 18.6805 4.92849 19.0711C5.31901 19.4616 5.95218 19.4616 6.3427 19.0711L11.9996 13.4142L17.6564 19.0711C18.0469 19.4616 18.6801 19.4616 19.0706 19.0711C19.4611 18.6805 19.4611 18.0474 19.0706 17.6569L13.4138 12L19.0706 6.34314C19.4612 5.95262 19.4611 5.31946 19.0706 4.92893C18.6801 4.53841 18.0469 4.53841 17.6564 4.92893L11.9996 10.5858L6.3427 4.92893Z" fill="#798395"/>
</g>
<defs>
<clipPath id="clip0_11:2608">
<rect width="24" height="24" fill="white"/>
</clipPath>
</defs>
</svg>
