<svg width="20" height="20" viewBox="0 0 20 20" fill="none" xmlns="http://www.w3.org/2000/svg">
    <path d="M17.7084 7.625C15.7834 4.6 12.9667 2.85834 10 2.85834C8.51669 2.85834 7.07502 3.29167 5.75835 4.1C4.44169 4.91667 3.25835 6.10834 2.29169 7.625C1.45835 8.93334 1.45835 11.0583 2.29169 12.3667C4.21669 15.4 7.03335 17.1333 10 17.1333C11.4834 17.1333 12.925 16.7 14.2417 15.8917C15.5584 15.075 16.7417 13.8833 17.7084 12.3667C18.5417 11.0667 18.5417 8.93334 17.7084 7.625ZM10 13.3667C8.13335 13.3667 6.63335 11.8583 6.63335 10C6.63335 8.14167 8.13335 6.63334 10 6.63334C11.8667 6.63334 13.3667 8.14167 13.3667 10C13.3667 11.8583 11.8667 13.3667 10 13.3667Z" fill="#6E7987"/>
    <path d="M10 7.61664C8.69167 7.61664 7.625 8.6833 7.625 9.99997C7.625 11.3083 8.69167 12.375 10 12.375C11.3083 12.375 12.3833 11.3083 12.3833 9.99997C12.3833 8.69164 11.3083 7.61664 10 7.61664Z" fill="#6E7987"/>
    </svg>
    