<svg width="48" height="48" viewBox="0 0 48 48" fill="none" xmlns="http://www.w3.org/2000/svg">
<path fill-rule="evenodd" clip-rule="evenodd" d="M0 4C0 1.79086 1.79086 0 4 0H44C46.2091 0 48 1.79086 48 4V44C48 46.2091 46.2091 48 44 48H4C1.79086 48 0 46.2091 0 44V4Z" fill="#B06161"/>
<path fill-rule="evenodd" clip-rule="evenodd" d="M2.74286 0.685714H44.5714C46.4002 0.685714 47.5426 1.14309 48 2.05714V0H0V2.05714C0.457371 1.14309 1.37143 0.685714 2.74286 0.685714Z" fill="white" fill-opacity="0.383"/>
<path opacity="0.33" fill-rule="evenodd" clip-rule="evenodd" d="M22.2446 47.3143H2.74286C1.37143 47.3143 0 46.6286 0 44.5714V28.9029L10.7191 17.4651L24.6857 14.4L35.6571 17.1429L41.1038 20.8135L37.7143 24.6857V30.5664L22.2446 47.3143Z" fill="#393939"/>
<path fill-rule="evenodd" clip-rule="evenodd" d="M2.74286 47.3143H44.5714C46.4002 47.3143 47.5426 46.6286 48 45.2571V48H0V45.2571C0.457371 46.6286 1.37143 47.3143 2.74286 47.3143Z" fill="black" fill-opacity="0.383"/>
<path opacity="0.3" d="M37.6114 25.2391C37.6433 25.262 37.6693 25.2922 37.6872 25.3271C37.7051 25.362 37.7144 25.4007 37.7143 25.44V31.8809C37.7144 31.9298 37.6999 31.9775 37.6728 32.0182C37.6457 32.0588 37.6072 32.0905 37.5621 32.1093L25.7129 37.0101C25.6754 37.0257 25.6345 37.0318 25.5941 37.0277C25.5536 37.0237 25.5148 37.0096 25.4811 36.9867C25.4473 36.9641 25.4196 36.9335 25.4005 36.8977C25.3813 36.8618 25.3714 36.8217 25.3714 36.781V24.9326C25.3715 24.8815 25.3873 24.8318 25.4168 24.7901C25.4463 24.7485 25.488 24.717 25.5361 24.7C25.5842 24.683 25.6364 24.6813 25.6855 24.6952C25.7346 24.7091 25.7782 24.7379 25.8103 24.7776L28.4503 28.0416C28.4503 28.0416 28.5751 28.2082 28.7671 28.1417C28.9961 28.0629 37.3879 25.2062 37.3879 25.2062C37.4251 25.1935 37.4648 25.1898 37.5036 25.1955C37.5425 25.2013 37.5795 25.2162 37.6114 25.2391ZM41.0914 21.8976C41.1158 21.9282 41.1322 21.9644 41.1392 22.003C41.1461 22.0415 41.1434 22.0812 41.1312 22.1184C41.1183 22.1561 41.0967 22.1902 41.0681 22.218C41.0395 22.2458 41.0047 22.2664 40.9666 22.2782L29.2855 26.0407C29.2356 26.0573 29.182 26.0587 29.1313 26.0448C29.0807 26.0309 29.0353 26.0022 29.0009 25.9625L25.7307 22.1376L24.7618 22.3913L24.7474 22.3941C24.7025 22.4058 24.6553 22.4058 24.6103 22.3941L23.6407 22.141L20.3705 25.9659C20.3362 26.0057 20.2908 26.0343 20.2401 26.0482C20.1894 26.0621 20.1358 26.0607 20.0859 26.0441L8.40481 22.2816C8.36673 22.2698 8.33198 22.2492 8.30338 22.2214C8.27478 22.1937 8.25314 22.1595 8.24024 22.1218C8.22801 22.0846 8.22525 22.0449 8.23219 22.0064C8.23913 21.9678 8.25557 21.9316 8.28001 21.901L10.6567 18.8873C10.6916 18.8436 10.7397 18.8123 10.7938 18.7982L24.6082 15.0967C24.6589 15.0833 24.712 15.0821 24.7632 15.0933L38.5783 18.7954C38.6331 18.8098 38.6811 18.8414 38.7154 18.8846L41.0921 21.8983L41.0914 21.8976ZM24.6926 21.3463L34.5847 18.7749L24.6926 16.139L14.7861 18.7783L24.6926 21.3463ZM23.8258 24.6994C23.9301 24.7351 23.9993 24.8283 23.9993 24.9326V36.7817C23.9993 36.864 23.9561 36.9408 23.8834 36.9874C23.8474 37.0102 23.8065 37.0241 23.7641 37.028C23.7217 37.032 23.6789 37.0258 23.6393 37.0101L11.1319 32.1093C11.0851 32.0919 11.0447 32.0608 11.0159 32.0201C10.9871 31.9793 10.9714 31.9308 10.9707 31.8809V25.44C10.9707 25.3605 11.0112 25.2857 11.0798 25.2391C11.114 25.2162 11.1529 25.2014 11.1936 25.1957C11.2343 25.19 11.2758 25.1936 11.315 25.2062C11.315 25.2062 20.173 28.0629 20.4144 28.1417C20.6181 28.2082 20.749 28.0416 20.749 28.0416L23.5365 24.7776C23.5716 24.7375 23.6179 24.7087 23.6694 24.6949C23.7209 24.6812 23.7753 24.6823 23.8258 24.6994Z" fill="black"/>
<path d="M37.6114 23.8677C37.6433 23.8906 37.6693 23.9207 37.6872 23.9557C37.7051 23.9906 37.7144 24.0293 37.7143 24.0686V30.5095C37.7144 30.5583 37.6999 30.6061 37.6728 30.6468C37.6457 30.6874 37.6072 30.7191 37.5621 30.7378L25.7129 35.6386C25.6754 35.6543 25.6345 35.6604 25.5941 35.6563C25.5536 35.6522 25.5148 35.6381 25.4811 35.6153C25.4473 35.5927 25.4196 35.5621 25.4005 35.5262C25.3813 35.4903 25.3714 35.4503 25.3714 35.4096V23.5611C25.3715 23.5101 25.3873 23.4603 25.4168 23.4187C25.4463 23.377 25.488 23.3456 25.5361 23.3286C25.5842 23.3116 25.6364 23.3099 25.6855 23.3238C25.7346 23.3377 25.7782 23.3665 25.8103 23.4062L28.4503 26.6702C28.4503 26.6702 28.5751 26.8368 28.7671 26.7703C28.9961 26.6914 37.3879 23.8347 37.3879 23.8347C37.4251 23.822 37.4648 23.8184 37.5036 23.8241C37.5425 23.8298 37.5795 23.8448 37.6114 23.8677ZM41.0914 20.5262C41.1158 20.5568 41.1322 20.593 41.1392 20.6316C41.1461 20.6701 41.1434 20.7097 41.1312 20.747C41.1183 20.7847 41.0967 20.8188 41.0681 20.8466C41.0395 20.8743 41.0047 20.895 40.9666 20.9067L29.2855 24.6693C29.2356 24.6859 29.182 24.6873 29.1313 24.6734C29.0807 24.6595 29.0353 24.6308 29.0009 24.5911L25.7307 20.7662L24.7618 21.0199L24.7474 21.0226C24.7025 21.0344 24.6553 21.0344 24.6103 21.0226L23.6407 20.7696L20.3705 24.5945C20.3362 24.6342 20.2908 24.6629 20.2401 24.6768C20.1894 24.6907 20.1358 24.6893 20.0859 24.6727L8.40481 20.9102C8.36673 20.8984 8.33198 20.8778 8.30338 20.85C8.27478 20.8222 8.25314 20.7881 8.24024 20.7504C8.22801 20.7132 8.22525 20.6735 8.23219 20.635C8.23913 20.5964 8.25557 20.5602 8.28001 20.5296L10.6567 17.5159C10.6916 17.4722 10.7397 17.4409 10.7938 17.4267L24.6082 13.7253C24.6589 13.7119 24.712 13.7107 24.7632 13.7218L38.5783 17.424C38.6331 17.4384 38.6811 17.4699 38.7154 17.5131L41.0921 20.5269L41.0914 20.5262ZM24.6926 19.9749L34.5847 17.4034L24.6926 14.7675L14.7861 17.4069L24.6926 19.9749ZM23.8258 23.328C23.9301 23.3637 23.9993 23.4569 23.9993 23.5611V35.4103C23.9993 35.4926 23.9561 35.5694 23.8834 35.616C23.8474 35.6388 23.8065 35.6527 23.7641 35.6566C23.7217 35.6605 23.6789 35.6544 23.6393 35.6386L11.1319 30.7378C11.0851 30.7205 11.0447 30.6894 11.0159 30.6487C10.9871 30.6079 10.9714 30.5594 10.9707 30.5095V24.0686C10.9707 23.989 11.0112 23.9143 11.0798 23.8677C11.114 23.8448 11.1529 23.83 11.1936 23.8243C11.2343 23.8186 11.2758 23.8222 11.315 23.8347C11.315 23.8347 20.173 26.6914 20.4144 26.7703C20.6181 26.8368 20.749 26.6702 20.749 26.6702L23.5365 23.4062C23.5716 23.3661 23.6179 23.3373 23.6694 23.3235C23.7209 23.3097 23.7753 23.3108 23.8258 23.328Z" fill="white"/>
</svg>
