<svg width="48" height="48" viewBox="0 0 48 48" fill="none" xmlns="http://www.w3.org/2000/svg">
<path fill-rule="evenodd" clip-rule="evenodd" d="M0 0H48V48H0V0Z" fill="#7CC098"/>
<path fill-rule="evenodd" clip-rule="evenodd" d="M2.74286 0.685714H44.5714C46.4002 0.685714 47.5426 1.14309 48 2.05714V0H0V2.05714C0.457371 1.14309 1.37143 0.685714 2.74286 0.685714Z" fill="white" fill-opacity="0.383"/>
<path opacity="0.324" fill-rule="evenodd" clip-rule="evenodd" d="M2.74286 47.3145C1.37143 47.3145 0 46.6287 0 44.5716V24.7373L10.3221 14.3145L22.9749 14.4639L24.8496 19.2159V22.3181L36.768 35.6436L29.2574 47.3145H2.74286Z" fill="#393939"/>
<path fill-rule="evenodd" clip-rule="evenodd" d="M2.74286 47.315H44.5714C46.4002 47.315 47.5426 46.6292 48 45.2578V48.0007H0V45.2578C0.457371 46.6292 1.37143 47.315 2.74286 47.315Z" fill="black" fill-opacity="0.383"/>
<path opacity="0.3" d="M10.9447 22.2543C10.4359 22.2543 10.1177 22.7919 10.3797 23.2143C11.7573 25.4325 14.2663 26.9171 17.1326 26.9171C21.4649 26.9171 24.9806 23.5269 25.0073 19.3359C25.0347 15.1256 21.4779 11.6572 17.1326 11.6572C14.269 11.6572 11.7627 13.1384 10.3838 15.3525C10.1198 15.7777 10.4318 16.3194 10.9447 16.3194H16.6951L18.8825 19.2872L16.6951 22.2543H10.9447V22.2543ZM20.3314 27.1818L31.2823 37.7919C32.6496 39.116 34.8658 39.116 36.2331 37.7919C36.5572 37.4822 36.8151 37.11 36.9913 36.6979C37.1676 36.2857 37.2584 35.8421 37.2584 35.3939C37.2584 34.9457 37.1676 34.5021 36.9913 34.0899C36.8151 33.6778 36.5572 33.3056 36.2331 32.996L25.2816 22.3866C24.3977 24.5692 22.5854 26.3253 20.3314 27.1818V27.1818ZM31.5703 34.5464C31.5703 33.8442 32.1579 33.2751 32.8827 33.2751C33.6075 33.2751 34.1952 33.8442 34.1952 34.5464C34.1952 35.2485 33.6075 35.8177 32.8827 35.8177C32.1579 35.8177 31.5703 35.2485 31.5703 34.5464Z" fill="black"/>
<path d="M10.9447 20.8832C10.4359 20.8832 10.1177 21.4208 10.3797 21.8432C11.7573 24.0614 14.2663 25.546 17.1326 25.546C21.4649 25.546 24.9806 22.1558 25.0073 17.9648C25.0347 13.7545 21.4779 10.2861 17.1326 10.2861C14.269 10.2861 11.7627 11.7673 10.3838 13.9814C10.1198 14.4066 10.4318 14.9483 10.9447 14.9483H16.6951L18.8825 17.9161L16.6951 20.8832H10.9447V20.8832ZM20.3314 25.8107L31.2823 36.4208C32.6496 37.7449 34.8658 37.7449 36.2331 36.4208C36.5572 36.1111 36.8151 35.7389 36.9913 35.3268C37.1676 34.9146 37.2584 34.4711 37.2584 34.0228C37.2584 33.5746 37.1676 33.131 36.9913 32.7188C36.8151 32.3067 36.5572 31.9346 36.2331 31.6249L25.2816 21.0155C24.3977 23.1981 22.5854 24.9542 20.3314 25.8107V25.8107ZM31.5703 33.1753C31.5703 32.4731 32.1579 31.904 32.8827 31.904C33.6075 31.904 34.1952 32.4731 34.1952 33.1753C34.1952 33.8774 33.6075 34.4466 32.8827 34.4466C32.1579 34.4466 31.5703 33.8774 31.5703 33.1753Z" fill="white"/>
</svg>
