<svg width="70" height="71" viewBox="0 0 70 71" fill="none" xmlns="http://www.w3.org/2000/svg">
<path d="M70 0.200001H0V70.2H70V0.200001Z" fill="#94B6C8"/>
<path fill-rule="evenodd" clip-rule="evenodd" d="M4 1.2H65C67.6667 1.2 69.3333 1.86667 70 3.2C70 0.533334 70 -0.466666 70 0.200001H0C0 -0.466666 0 0.533334 0 3.2C0.666667 1.86667 2 1.2 4 1.2Z" fill="white" fill-opacity="0.383"/>
<path opacity="0.324" fill-rule="evenodd" clip-rule="evenodd" d="M28.4624 69.2H4C2 69.2 0 68.2 0 65.2L0 43.2937L20.8066 23.2L22.9518 24.1924L28.0935 19.1809L31.0774 23.2L37.6018 18.413L43.4337 26.7917L54.6294 15.638L59.6395 20.5587L49.7157 30.4143L51 31.2L51.617 32.5421L47.1293 36.6405L51.2906 41.627L47.1293 48.9501L28.4624 69.2Z" fill="#393939"/>
<path fill-rule="evenodd" clip-rule="evenodd" d="M4 69.2H65C67.6667 69.2 69.3333 68.2 70 66.2C70 68.8667 70 70.2 70 70.2H0C0 70.2 0 68.8667 0 66.2C0.666667 68.2 2 69.2 4 69.2Z" fill="black" fill-opacity="0.383"/>
<path opacity="0.3" d="M45.6794 24.5439C44.3412 25.8666 43.1147 27.0853 42 28.2C40.7278 30.4264 40.1637 32.3494 40.2112 33.8401L33.0712 40.98L29.7135 37.6223C29.414 37.3228 28.9285 37.3228 28.629 37.6223L27.5446 38.7068C27.2451 39.0062 27.2451 39.4918 27.5446 39.7912L32.529 44.7756C32.8284 45.0751 33.314 45.0751 33.6135 44.7757L41.7001 36.689C43.0271 37.4805 45.1917 37.4036 48 36.2C48.9626 35.2374 50.1271 34.0852 51.4935 32.7433C51.9702 33.3788 51.9755 34.3369 51.3159 34.9613L48.0976 38.1111L51.3158 41.2608C52.2748 42.1686 51.8284 43.7829 50.5695 44.084L46.1848 45.2031L47.4209 49.5433C47.7701 50.7914 46.5933 51.9694 45.345 51.6199L41.0062 50.3834L39.8875 54.7696C39.5839 56.0401 37.9401 56.4602 37.0653 55.5162L33.9167 52.2967L30.7679 55.5162C29.884 56.4505 28.2563 56.0696 27.9457 54.7696L26.827 50.3834L22.4882 51.6199C21.2402 51.9693 20.063 50.7917 20.4123 49.5433L21.6484 45.2031L17.2637 44.084C16.0053 43.783 15.558 42.169 16.5173 41.2608L19.7357 38.1111L16.5173 34.9613C15.5584 34.0535 16.0048 32.4392 17.2638 32.1382L21.6484 31.0191L20.4124 26.6789C20.0632 25.4307 21.2399 24.2528 22.4883 24.6023L26.8271 25.8387L27.9458 21.4526C28.2452 20.1997 29.8841 19.7716 30.768 20.706L33.9167 23.9492L37.0654 20.7059C37.9595 19.7608 39.5916 20.2138 39.8876 21.4525L41.0063 25.8387L45.345 24.6022C45.4574 24.5707 45.5692 24.5517 45.6794 24.5439ZM61.4483 20.7473L59.6475 22.5478C59.4639 22.7314 59.167 22.7314 58.9834 22.5478L54.6475 18.2124C54.4639 18.0288 54.4639 17.732 54.6475 17.5484L56.4483 15.7478C57.1788 15.0174 58.3663 15.0174 59.1006 15.7478L61.4483 18.0952C62.1827 18.8256 62.1827 20.013 61.4483 20.7473ZM53.1006 19.0951L42.8428 29.3518L42.0147 34.0974C41.9014 34.738 42.46 35.2926 43.1006 35.1832L47.8467 34.3513L58.1045 24.0946C58.2881 23.911 58.2881 23.6141 58.1045 23.4306L53.7686 19.0951C53.5811 18.9115 53.2842 18.9115 53.1006 19.0951ZM46.8467 28.473C46.6319 28.2582 46.6319 27.9145 46.8467 27.6996L52.8624 21.6847C53.0772 21.4698 53.4209 21.4698 53.6358 21.6847C53.8506 21.8995 53.8506 22.2432 53.6358 22.458L47.6202 28.473C47.4053 28.6878 47.0616 28.6878 46.8467 28.473ZM45.4366 31.7578H47.3116V33.1756L44.792 33.617L43.5772 32.4023L44.0186 29.883H45.4366V31.7578Z" fill="black"/>
<path d="M45.6794 22.5439C44.3412 23.8666 43.1147 25.0853 42 26.2C40.7278 28.4264 40.1637 30.3494 40.2112 31.8401L33.0712 38.98L29.7135 35.6223C29.414 35.3228 28.9285 35.3228 28.629 35.6223L27.5446 36.7068C27.2451 37.0062 27.2451 37.4918 27.5446 37.7912L32.529 42.7756C32.8284 43.0751 33.314 43.0751 33.6135 42.7757L41.7001 34.689C43.0271 35.4805 45.1917 35.4036 48 34.2C48.9626 33.2374 50.1271 32.0852 51.4935 30.7433C51.9702 31.3788 51.9755 32.3369 51.3159 32.9613L48.0976 36.1111L51.3158 39.2608C52.2748 40.1686 51.8284 41.7829 50.5695 42.084L46.1848 43.2031L47.4209 47.5433C47.7701 48.7914 46.5933 49.9694 45.345 49.6199L41.0062 48.3834L39.8875 52.7696C39.5839 54.0401 37.9401 54.4602 37.0653 53.5162L33.9167 50.2967L30.7679 53.5162C29.884 54.4505 28.2563 54.0696 27.9457 52.7696L26.827 48.3834L22.4882 49.6199C21.2402 49.9693 20.063 48.7917 20.4123 47.5433L21.6484 43.2031L17.2637 42.084C16.0053 41.783 15.558 40.169 16.5173 39.2608L19.7357 36.1111L16.5173 32.9613C15.5584 32.0535 16.0048 30.4392 17.2638 30.1382L21.6484 29.0191L20.4124 24.6789C20.0632 23.4307 21.2399 22.2528 22.4883 22.6023L26.8271 23.8387L27.9458 19.4526C28.2452 18.1997 29.8841 17.7716 30.768 18.706L33.9167 21.9492L37.0654 18.7059C37.9595 17.7608 39.5916 18.2138 39.8876 19.4525L41.0063 23.8387L45.345 22.6022C45.4574 22.5707 45.5692 22.5517 45.6794 22.5439ZM61.4483 18.7473L59.6475 20.5478C59.4639 20.7314 59.167 20.7314 58.9834 20.5478L54.6475 16.2124C54.4639 16.0288 54.4639 15.732 54.6475 15.5484L56.4483 13.7478C57.1788 13.0174 58.3663 13.0174 59.1006 13.7478L61.4483 16.0952C62.1827 16.8256 62.1827 18.013 61.4483 18.7473ZM53.1006 17.0951L42.8428 27.3518L42.0147 32.0974C41.9014 32.738 42.46 33.2926 43.1006 33.1832L47.8467 32.3513L58.1045 22.0946C58.2881 21.911 58.2881 21.6141 58.1045 21.4306L53.7686 17.0951C53.5811 16.9115 53.2842 16.9115 53.1006 17.0951ZM46.8467 26.473C46.6319 26.2582 46.6319 25.9145 46.8467 25.6996L52.8624 19.6847C53.0772 19.4698 53.4209 19.4698 53.6358 19.6847C53.8506 19.8995 53.8506 20.2432 53.6358 20.458L47.6202 26.473C47.4053 26.6878 47.0616 26.6878 46.8467 26.473ZM45.4366 29.7578H47.3116V31.1756L44.792 31.617L43.5772 30.4023L44.0186 27.883H45.4366V29.7578Z" fill="white"/>
</svg>
