<svg width="48" height="48" viewBox="0 0 48 48" fill="none" xmlns="http://www.w3.org/2000/svg">
<path fill-rule="evenodd" clip-rule="evenodd" d="M0 4C0 1.79086 1.79086 0 4 0H44C46.2091 0 48 1.79086 48 4V44C48 46.2091 46.2091 48 44 48H4C1.79086 48 0 46.2091 0 44V4Z" fill="#94B6C8"/>
<path fill-rule="evenodd" clip-rule="evenodd" d="M2.74286 0.685714H44.5714C46.4002 0.685714 47.5426 1.14309 48 2.05714V0H0V2.05714C0.457371 1.14309 1.37143 0.685714 2.74286 0.685714Z" fill="white" fill-opacity="0.383"/>
<path opacity="0.324" fill-rule="evenodd" clip-rule="evenodd" d="M29.1346 47.3143H2.74286C1.37143 47.3143 0 46.6286 0 44.5715V28.3529L14.3575 13.0272L24.4395 20.8855L21.5589 24.4396L20.7003 29.5276L25.093 24.6515L31.5429 22.6286L38.3712 33.4931L29.1346 47.3143Z" fill="#393939"/>
<path opacity="0.3" d="M19.3906 11.8184C22.9516 11.8184 25.8391 14.747 25.8391 18.3601C25.8391 21.9738 22.9522 24.9025 19.3906 24.9025C15.829 24.9025 12.9422 21.9738 12.9422 18.3608C12.9422 14.747 15.829 11.8184 19.3906 11.8184V11.8184ZM23.5173 25.1843C23.5173 24.9011 17.2238 26.4508 14.8773 24.7386L12.0041 25.4675C10.2816 25.905 9.07269 27.4746 9.07269 29.276V30.7907C9.07269 31.8741 9.93944 32.7532 11.0078 32.7532H21.613C20.3431 28.4058 23.5173 25.4675 23.5173 25.1843V25.1843ZM31.2 23.1731C26.7662 23.1731 23.173 26.7662 23.173 31.2001C23.173 35.6339 26.7662 39.227 31.2 39.227C35.6338 39.227 39.227 35.6339 39.227 31.2001C39.227 26.7662 35.6338 23.1731 31.2 23.1731ZM33.048 34.5045L30.1934 32.4302C30.1443 32.3939 30.1044 32.3466 30.0769 32.292C30.0493 32.2375 30.035 32.1773 30.035 32.1162V26.6689C30.035 26.4549 30.2098 26.2808 30.4231 26.2808H31.9769C32.1902 26.2808 32.365 26.4549 32.365 26.6689V31.126L34.4201 32.6209C34.4615 32.651 34.4965 32.6889 34.5231 32.7326C34.5497 32.7762 34.5675 32.8247 34.5753 32.8752C34.5832 32.9258 34.5809 32.9773 34.5688 33.027C34.5566 33.0767 34.5348 33.1234 34.5045 33.1646L33.5925 34.4202C33.5312 34.5033 33.4396 34.5588 33.3376 34.5746C33.2356 34.5904 33.1315 34.5652 33.048 34.5045V34.5045Z" fill="black"/>
<path d="M19.3906 10.4469C22.9516 10.4469 25.8391 13.3756 25.8391 16.9886C25.8391 20.6024 22.9522 23.531 19.3906 23.531C15.829 23.531 12.9422 20.6024 12.9422 16.9893C12.9422 13.3756 15.829 10.4469 19.3906 10.4469V10.4469ZM23.5173 23.8129C23.5173 23.5297 17.2238 25.0794 14.8773 23.3672L12.0041 24.0961C10.2816 24.5336 9.07269 26.1032 9.07269 27.9045V29.4193C9.07269 30.5027 9.93944 31.3818 11.0078 31.3818H21.613C20.3431 27.0344 23.5173 24.0961 23.5173 23.8129V23.8129ZM31.2 21.8017C26.7662 21.8017 23.173 25.3948 23.173 29.8286C23.173 34.2625 26.7662 37.8556 31.2 37.8556C35.6338 37.8556 39.227 34.2625 39.227 29.8286C39.227 25.3948 35.6338 21.8017 31.2 21.8017ZM33.048 33.1331L30.1934 31.0588C30.1443 31.0225 30.1044 30.9752 30.0769 30.9206C30.0493 30.8661 30.035 30.8058 30.035 30.7448V25.2974C30.035 25.0835 30.2098 24.9093 30.4231 24.9093H31.9769C32.1902 24.9093 32.365 25.0835 32.365 25.2974V29.7546L34.4201 31.2494C34.4615 31.2795 34.4965 31.3175 34.5231 31.3611C34.5497 31.4048 34.5675 31.4533 34.5753 31.5038C34.5832 31.5543 34.5809 31.6059 34.5688 31.6556C34.5566 31.7052 34.5348 31.752 34.5045 31.7932L33.5925 33.0488C33.5312 33.1319 33.4396 33.1874 33.3376 33.2032C33.2356 33.219 33.1315 33.1938 33.048 33.1331V33.1331Z" fill="white"/>
</svg>
